<mxfile host="app.diagrams.net" modified="2022-04-15T09:25:46.234Z" agent="5.0 (Windows NT 10.0; Win64; x64) AppleWebKit/537.36 (KHTML, like Gecko) Chrome/100.0.4896.75 Safari/537.36" etag="HDru7R4KnGSqefYVBEbw" version="17.4.4" type="github">
  <diagram id="knMXWCGG6_-gHdy01Hyh" name="Page-1">
    <mxGraphModel dx="976" dy="619" grid="1" gridSize="10" guides="1" tooltips="1" connect="1" arrows="1" fold="1" page="1" pageScale="1" pageWidth="827" pageHeight="1169" math="0" shadow="0">
      <root>
        <mxCell id="0" />
        <mxCell id="1" parent="0" />
        <mxCell id="GIMM10E1bogJqhe_hlqj-3" value="의류 어플리케이션" style="swimlane;" vertex="1" parent="1">
          <mxGeometry x="310" y="230" width="200" height="200" as="geometry" />
        </mxCell>
      </root>
    </mxGraphModel>
  </diagram>
</mxfile>
